<?xml version="1.0" standalone="no"?><!DOCTYPE svg PUBLIC "-//W3C//DTD SVG 1.1//EN" "http://www.w3.org/Graphics/SVG/1.1/DTD/svg11.dtd"><svg t="1577969075021" class="icon" viewBox="0 0 1960 1024" version="1.1" xmlns="http://www.w3.org/2000/svg" p-id="1227" xmlns:xlink="http://www.w3.org/1999/xlink" width="382.8125" height="200"><defs><style type="text/css"></style></defs><path d="M169.354588 676.004652v168.095446a72.872839 72.872839 0 1 1-145.745677 0V676.004652a72.872839 72.872839 0 0 1 72.872839-72.715446h1.416534a72.872839 72.872839 0 0 1 71.456304 72.715446z" fill="#FFDB93" p-id="1228"></path><path d="M914.923998 393.484683a614.776043 614.776043 0 0 0 198.000067 0l782.871489-161.642344c27.071551-5.351353 40.607327-12.434026 40.76472-19.5167l-5.823531 113.794952-323.284689 77.59462-494.527989 119.303697a614.776043 614.776043 0 0 1-198.000067 0l-502.240234-120.562839-314.78548-75.8633-6.610495-113.794951c0 7.082673 13.693168 14.165347 40.76472 19.516699z" fill="#D3EEE4" p-id="1229"></path><path d="M1895.795554 193.281118c27.228944 5.351353 40.76472 12.434026 40.76472 19.5167s-13.693168 14.165347-40.76472 19.516699L1112.924065 393.484683a614.776043 614.776043 0 0 1-198.000067 0L132.052509 232.314517C104.980958 226.963164 91.287789 220.352669 91.287789 212.797818s13.535776-14.165347 40.76472-19.5167L914.923998 31.481381a614.776043 614.776043 0 0 1 198.000067 0z" fill="#06C7CA" p-id="1230"></path><path d="M914.923998 523.018908a614.776043 614.776043 0 0 0 198.000067 0l494.527989-118.831518v513.57251c-12.591419 45.95868-274.965117 82.631189-596.83327 82.631189s-584.399244-36.672508-596.83327-82.631189V402.456069z" fill="#06C7CA" p-id="1231"></path><path d="M1010.146606 1024c-59.022278 0-565.512115-2.675677-616.507363-92.546931a22.821947 22.821947 0 0 1-4.56439-13.693169V402.456069h47.217822v508.378551c25.969802 27.386337 240.968285 65.947558 573.853931 65.947558s547.097165-38.403829 573.696537-65.790165v-506.804623h47.217822v513.57251a23.451518 23.451518 0 0 1-4.721782 14.165347c-52.411782 89.399076-557.1703 92.074753-616.192577 92.074753zM74.289373 327.064947h47.217822v276.224259h-47.217822z" fill="#18252F" p-id="1232"></path><path d="M96.48175 940.581848A96.48175 96.48175 0 0 1 0 844.100098V676.004652a96.48175 96.48175 0 0 1 96.48175-96.324357h2.046105a96.48175 96.48175 0 0 1 94.435644 96.324357v168.095446a96.639142 96.639142 0 0 1-96.481749 96.48175z m0.786963-313.683731A49.42132 49.42132 0 0 0 47.217822 676.004652v168.095446a49.263928 49.263928 0 0 0 98.527855 0V676.004652a49.263928 49.263928 0 0 0-48.476964-49.106535zM1917.830538 224.44488a78.69637 78.69637 0 0 0-26.441981-8.184422L1108.202283 54.775507a594.944557 594.944557 0 0 0-188.871288 0L136.774291 216.417851a79.798119 79.798119 0 0 0-26.756766 8.184422 15.739274 15.739274 0 0 0 4.721783-11.804455h-47.217823c0-31.478548 41.866469-39.190792 59.809242-42.653433L910.202216 8.502041A641.847594 641.847594 0 0 1 1117.488455 8.344648l783.028881 161.642344c17.627987 3.46264 59.651848 11.647063 59.651849 42.653433h-47.217822a15.739274 15.739274 0 0 0 4.879175 11.804455z" fill="#18252F" p-id="1233"></path><path d="M1013.924032 554.654849a563.780795 563.780795 0 0 1-103.564423-8.499208L91.759967 349.414716a23.608911 23.608911 0 0 1-18.100165-21.720198l-5.980924-113.322773v-1.259142A23.608911 23.608911 0 0 1 90.658218 188.874121a23.136733 23.136733 0 0 1 21.720198 13.063598 110.174918 110.174918 0 0 0 24.238482 6.92528l783.028882 161.95713a622.64568 622.64568 0 0 0 188.871288 0l782.714097-161.642344a110.174918 110.174918 0 0 0 24.395874-6.925281 23.608911 23.608911 0 0 1 44.699539 11.174885l-5.823532 113.480165A23.608911 23.608911 0 0 1 1935.930703 349.414716L1117.488455 545.840856a562.836439 562.836439 0 0 1-103.564423 8.813993zM119.933268 307.70564l800.499476 192.333928a526.950894 526.950894 0 0 0 93.491288 7.397459 524.904788 524.904788 0 0 0 94.435644-7.554851l799.712512-192.176536 2.833069-54.615281-10.545313 2.203498L1117.488455 417.093594a564.252973 564.252973 0 0 1-103.721816 8.499208 563.623402 563.623402 0 0 1-103.564423-8.499208L127.330727 255.45125l-10.230528-2.203498z" fill="#18252F" p-id="1234"></path></svg>